<?xml version="1.0" encoding="UTF-8"?>
<svg version="1.1" xmlns="http://www.w3.org/2000/svg" width="500" height="500">
<path d="M0 0 C165 0 330 0 500 0 C500 165 500 330 500 500 C335 500 170 500 0 500 C0 335 0 170 0 0 Z " fill="#FEFEFE" transform="translate(0,0)"/>
<path d="M0 0 C0.7415332 0.11827148 1.48306641 0.23654297 2.24707031 0.35839844 C38.77540343 6.39271324 73.71735056 26.08621189 99 53 C100.97574437 56.95148874 100.43190217 61.69314457 100 66 C98.22652978 69.81978202 96.74050477 71.48336877 93.3125 73.875 C89.01243171 75.33540055 85.48379886 75.91975361 81 75 C77.05969076 72.97223852 74.00938809 69.92807136 70.76953125 66.94921875 C50.5897871 48.41545699 26.8572589 36.3786473 0 31 C-0.71526855 30.84901855 -1.43053711 30.69803711 -2.16748047 30.54248047 C-37.8331742 23.11112554 -76.91369546 30.26768238 -108.03515625 49.24072266 C-112.17970891 51.9587237 -116.11791469 54.92190408 -120 58 C-120.99773437 58.78761719 -121.99546875 59.57523438 -123.0234375 60.38671875 C-127.92791946 64.34389666 -132.69510137 68.43280464 -137.34375 72.6875 C-140.78116551 75.41148965 -144.52173771 75.33870628 -148.71484375 75.27734375 C-152.33744393 74.83767775 -154.32756608 73.41791641 -157 71 C-160.03228872 66.7547958 -160.71843887 62.62916177 -160.52734375 57.5078125 C-159.53312724 52.77976065 -156.45460844 50.18139687 -153 47 C-152.23558594 46.24203125 -151.47117187 45.4840625 -150.68359375 44.703125 C-135.57865701 30.22083451 -117.41529249 19.48033113 -98.3125 11.1875 C-97.48202148 10.8263208 -96.65154297 10.4651416 -95.79589844 10.09301758 C-65.70922662 -2.56870214 -32.08394546 -5.37979282 0 0 Z " fill="#0A0A98" transform="translate(269,90)"/>
<path d="M0 0 C0.83261353 0.00587128 1.66522705 0.01174255 2.52307129 0.01779175 C14.74461948 0.11879264 26.44458412 0.58686404 38.125 4.5 C39.22666504 4.85408936 39.22666504 4.85408936 40.35058594 5.21533203 C56.13672321 10.41811548 70.60687095 18.54939681 83.125 29.5 C83.94871094 30.180625 84.77242187 30.86125 85.62109375 31.5625 C90.81849094 35.95326115 94.41869787 39.43876278 95.625 46.375 C94.90824553 50.85471542 93.02654912 54.04104802 90.125 57.5 C85.81342077 60.49935946 82.32539771 61.15004971 77.125 60.5 C73.31182744 58.22152464 69.9952075 55.60106945 66.68798828 52.64331055 C44.58586057 32.94058595 18.98448169 27.45991571 -9.875 28.5 C-30.43204968 30.00837891 -49.36463926 39.25164933 -64.546875 52.90234375 C-73.53551743 60.76119825 -73.53551743 60.76119825 -79.8046875 60.83984375 C-84.46903134 60.07418731 -87.57211325 57.88694396 -90.8125 54.4375 C-92.52039593 49.71567007 -92.79771455 45.44211508 -91.875 40.5 C-90.14836515 37.1280573 -87.72491781 34.95793883 -84.875 32.5 C-83.43253906 31.23736328 -83.43253906 31.23736328 -81.9609375 29.94921875 C-58.47095311 10.1653847 -30.63778517 -0.40474409 0 0 Z " fill="#0A0A99" transform="translate(237.875,141.5)"/>
<path d="M0 0 C1.48025692 1.2877235 2.94095017 2.59851029 4.375 3.9375 C5.014375 4.50082031 5.65375 5.06414062 6.3125 5.64453125 C9.60373271 8.89767099 10.77716449 11.34134517 11 16 C10.69074613 20.62475101 9.58486397 23.47422571 6.375 26.9375 C1.99995196 29.85419869 -1.41727966 30.73189802 -6.625 29.9375 C-9.85231076 28.23954919 -12.70802864 26.11690112 -15.625 23.9375 C-29.59472688 13.79714695 -41.48304526 11.65872947 -58.625 12.9375 C-67.81087045 14.68819402 -74.68000798 20.17106441 -81.96875 25.72265625 C-85.50552821 28.284398 -88.36313607 30.31765834 -92.8125 30.5625 C-98.09220925 29.69697389 -100.98992061 27.79058997 -104.5 23.8125 C-106.22041605 19.41588121 -106.57886382 15.57868814 -105.625 10.9375 C-98.64866088 -1.87618409 -81.68618064 -9.50628395 -68.51953125 -14.16015625 C-44.92920664 -20.72150139 -19.19281212 -14.79685365 0 0 Z " fill="#0A0A99" transform="translate(286.625,207.0625)"/>
<path d="M0 0 C5.07876391 3.02827231 8.92199981 6.30506194 10.83984375 12.05859375 C11.20807863 17.67417564 11.07875781 21.25246321 7.83984375 26.05859375 C3.59833112 30.2510148 0.31233992 33.18818369 -5.78515625 33.43359375 C-11.36686398 33.35293323 -15.10158486 31.91143111 -19.16015625 28.05859375 C-22.64755035 23.5269517 -23.83554033 18.83604488 -23.54296875 13.16015625 C-22.4442501 7.1284151 -17.81192086 3.52267378 -13.16015625 0.05859375 C-8.60269471 -1.4605601 -4.44239501 -1.93601663 0 0 Z " fill="#0E0750" transform="translate(245.16015625,246.94140625)"/>
<path d="M0 0 C1.65 0 3.3 0 5 0 C7.01953125 2.40625 7.01953125 2.40625 8.8125 5.5 C9.41707031 6.5209375 10.02164062 7.541875 10.64453125 8.59375 C11.09183594 9.3878125 11.53914063 10.181875 12 11 C12.33 7.37 12.66 3.74 13 0 C14.32 0 15.64 0 17 0 C17 6.93 17 13.86 17 21 C12 20 12 20 9.98046875 17.49609375 C9.38878906 16.48675781 8.79710937 15.47742188 8.1875 14.4375 C7.28064453 12.91962891 7.28064453 12.91962891 6.35546875 11.37109375 C5.90816406 10.58863281 5.46085938 9.80617188 5 9 C4.67 12.96 4.34 16.92 4 21 C2.68 21 1.36 21 0 21 C0 14.07 0 7.14 0 0 Z " fill="#14149D" transform="translate(247,300)"/>
<path d="M0 0 C1.2065625 0.0309375 1.2065625 0.0309375 2.4375 0.0625 C5.51586721 7.00645046 8.06570313 13.57997162 9.4375 21.0625 C8.1175 21.0625 6.7975 21.0625 5.4375 21.0625 C5.1075 19.4125 4.7775 17.7625 4.4375 16.0625 C1.4675 16.0625 -1.5025 16.0625 -4.5625 16.0625 C-4.8925 17.7125 -5.2225 19.3625 -5.5625 21.0625 C-6.8825 21.0625 -8.2025 21.0625 -9.5625 21.0625 C-5.44518381 0.13280936 -5.44518381 0.13280936 0 0 Z " fill="#17179E" transform="translate(225.5625,299.9375)"/>
<path d="M0 0 C1.65 0 3.3 0 5 0 C5.33 3.3 5.66 6.6 6 10 C6.99 8.68 7.98 7.36 9 6 C10.32 6 11.64 6 13 6 C11.66666667 8.66666667 10.33333333 11.33333333 9 14 C10.65 16.31 12.3 18.62 14 21 C12.68 21.33 11.36 21.66 10 22 C8.68 20.35 7.36 18.7 6 17 C5.67 18.65 5.34 20.3 5 22 C3.35 22 1.7 22 0 22 C0 14.74 0 7.48 0 0 Z " fill="#2D2DA7" transform="translate(201,299)"/>
<path d="M0 0 C2 1.5 2 1.5 3 3 C2.67 3.66 2.34 4.32 2 5 C-0.64 4.67 -3.28 4.34 -6 4 C-6 4.99 -6 5.98 -6 7 C-5.44570312 7.19335938 -4.89140625 7.38671875 -4.3203125 7.5859375 C-3.23363281 7.97652344 -3.23363281 7.97652344 -2.125 8.375 C-1.40570313 8.63023437 -0.68640625 8.88546875 0.0546875 9.1484375 C2 10 2 10 4 12 C4.55867885 17.25158117 4.55867885 17.25158117 2.7578125 19.6640625 C-0.01998402 21.77518785 -2.45594359 21.46467664 -5.8359375 21.37109375 C-8.88445504 20.84833352 -10.22825921 19.46503067 -12 17 C-11.01 16.34 -10.02 15.68 -9 15 C-8.01 15.66 -7.02 16.32 -6 17 C-2.87478167 17.16699232 -2.87478167 17.16699232 0 17 C-0.66227606 13.88896984 -0.66227606 13.88896984 -3.03125 12.8671875 C-3.8459375 12.53976562 -4.660625 12.21234375 -5.5 11.875 C-9.93582888 10.06417112 -9.93582888 10.06417112 -11 9 C-11.26077823 6.00105039 -11.43731576 3.81996705 -10 1.125 C-6.80290713 -0.67336474 -3.57619197 -0.58113119 0 0 Z " fill="#15159D" transform="translate(194,300)"/>
<path d="M0 0 C2.375 1.125 2.375 1.125 4 3 C4.25 6.1875 4.25 6.1875 4 9 C0.7 9 -2.6 9 -6 9 C-5.67 9.99 -5.34 10.98 -5 12 C-1.535 11.505 -1.535 11.505 2 11 C2 12.32 2 13.64 2 15 C0.12735324 16.87264676 -2.49759947 16.23607378 -4.9921875 16.328125 C-7 16 -7 16 -8.73046875 14.796875 C-10.39940529 12.4346879 -10.43322233 10.87459624 -10.4375 8 C-10.45683594 7.13375 -10.47617187 6.2675 -10.49609375 5.375 C-10 3 -10 3 -8.16015625 1.2109375 C-5.22908838 -0.43215661 -3.31291517 -0.4141144 0 0 Z " fill="#2D2DA7" transform="translate(279,305)"/>
<path d="M0 0 C1.32 0 2.64 0 4 0 C4 0.99 4 1.98 4 3 C5.32 3 6.64 3 8 3 C8 3.99 8 4.98 8 6 C6.68 6 5.36 6 4 6 C4.06006078 7.45947705 4.1488689 8.91779272 4.25 10.375 C4.29640625 11.18710937 4.3428125 11.99921875 4.390625 12.8359375 C4.7922092 15.18838927 4.7922092 15.18838927 7.046875 16.2890625 C7.69140625 16.52367187 8.3359375 16.75828125 9 17 C9 17.66 9 18.32 9 19 C5.625 19.1875 5.625 19.1875 2 19 C-0.20914 15.68629 -0.22481553 14.6553979 -0.125 10.8125 C-0.10695313 9.91144531 -0.08890625 9.01039063 -0.0703125 8.08203125 C-0.04710937 7.39496094 -0.02390625 6.70789063 0 6 C-0.66 6 -1.32 6 -2 6 C-2 5.01 -2 4.02 -2 3 C-1.34 3 -0.68 3 0 3 C0 2.01 0 1.02 0 0 Z " fill="#13139C" transform="translate(287,302)"/>
<path d="M0 0 C1.32 0 2.64 0 4 0 C4 5.28 4 10.56 4 16 C2.68 16 1.36 16 0 16 C0 10.72 0 5.44 0 0 Z " fill="#1B1BA0" transform="translate(238,305)"/>
<path d="M0 0 C2.5654594 2.5654594 2.54046087 4.47686668 3 8 C1.35 8 -0.3 8 -2 8 C-1.125 1.125 -1.125 1.125 0 0 Z " fill="#D9D9EF" transform="translate(225,305)"/>
<path d="M0 0 C2.31 0 4.62 0 7 0 C6.34 1.32 5.68 2.64 5 4 C3.35 3.67 1.7 3.34 0 3 C0 2.01 0 1.02 0 0 Z " fill="#F2F2F9" transform="translate(273,314)"/>
<path d="M0 0 C1.32 0 2.64 0 4 0 C4 1.32 4 2.64 4 4 C2.35 3.67 0.7 3.34 -1 3 C-0.67 2.01 -0.34 1.02 0 0 Z " fill="#2121A2" transform="translate(238,299)"/>
</svg>
